<svg xmlns="http://www.w3.org/2000/svg" viewBox="0 0 128 128" role="img" aria-labelledby="title">
  <title id="title">EC Lernstudio Logo</title>
  <defs>
    <linearGradient id="tile" x1="18" x2="110" y1="14" y2="116" gradientUnits="userSpaceOnUse">
      <stop offset="0" stop-color="#78e2df"/>
      <stop offset="0.56" stop-color="#a9e2c4"/>
      <stop offset="1" stop-color="#ffbd7a"/>
    </linearGradient>
    <linearGradient id="screen" x1="33" x2="101" y1="37" y2="88" gradientUnits="userSpaceOnUse">
      <stop offset="0" stop-color="#0b2030"/>
      <stop offset="1" stop-color="#112f43"/>
    </linearGradient>
  </defs>
  <rect x="10" y="10" width="108" height="108" rx="28" fill="url(#tile)"/>
  <path d="M33 42c0-6.1 5-11 11-11h40c6.1 0 11 4.9 11 11v28c0 6.1-4.9 11-11 11H44c-6 0-11-4.9-11-11V42Z" fill="url(#screen)"/>
  <path d="M44 49h19M44 60h13M44 71h22" fill="none" stroke="#78e2df" stroke-width="5" stroke-linecap="round"/>
  <path d="M77 51h9v9M86 51 72 65" fill="none" stroke="#ffbd7a" stroke-width="5" stroke-linecap="round" stroke-linejoin="round"/>
  <path d="M42 92h44" fill="none" stroke="#0b2030" stroke-width="7" stroke-linecap="round" opacity=".9"/>
  <text x="64" y="109" fill="#0b2030" font-family="Inter, Aptos, Segoe UI, Arial, sans-serif" font-size="20" font-weight="900" text-anchor="middle">EC</text>
</svg>
